<svg width="512" height="512" viewBox="0 0 512 512" fill="none" xmlns="http://www.w3.org/2000/svg">
<path d="M434.406 106.292C458.048 123.017 464.46 130.346 478 157.254C453.177 181.921 428.354 206.587 402.779 232C382.078 219.834 361.376 207.669 340.674 195.503C295.62 170.511 241.247 170.604 190.794 177.64C153.133 190.774 121.27 210.106 88.2206 232C63.3978 207.334 38.575 182.668 13 157.254C36.7571 110.04 83.3047 85.1863 131.814 65.946C233.858 35.6835 345.824 48.1516 434.406 106.292Z" fill="url(#paint0_linear_791_2)"/>
<path d="M325.331 230.396C346.671 245.316 351.367 250.58 361 273.28C298.984 346.447 298.984 346.447 268.404 352C252.294 349.615 252.294 349.615 237.857 345.38C223.748 340.248 223.748 340.248 204.735 348.757C180.073 323.85 155.41 298.942 130 273.28C143.857 245.291 152.526 236.5 180.213 223.642C226.692 209.869 280.933 209.777 325.331 230.396Z" fill="url(#paint1_linear_791_2)"/>
<path d="M265.874 375.905C284.219 388.201 296.735 396.971 306.642 416.892C309.565 443.343 308.794 454.634 293.902 477.091C276.871 494.717 270.939 498.3 246.764 501C220.14 498.376 210.069 490.036 191.132 471.541C181.438 452.05 182.229 438.516 184.337 416.892C207.831 381.463 223.452 371.724 265.874 375.905Z" fill="url(#paint2_linear_791_2)"/>
<defs>
<linearGradient id="paint0_linear_791_2" x1="245.5" y1="50" x2="245.5" y2="232" gradientUnits="userSpaceOnUse">
<stop offset="0.26" stop-color="#FFDB6E"/>
<stop offset="1" stop-color="#FFBC5E"/>
</linearGradient>
<linearGradient id="paint1_linear_791_2" x1="245.5" y1="214" x2="245.5" y2="352" gradientUnits="userSpaceOnUse">
<stop offset="0.26" stop-color="#FFDB6E"/>
<stop offset="1" stop-color="#FFBC5E"/>
</linearGradient>
<linearGradient id="paint2_linear_791_2" x1="245.5" y1="375" x2="245.5" y2="501" gradientUnits="userSpaceOnUse">
<stop offset="0.26" stop-color="#FFDB6E"/>
<stop offset="1" stop-color="#FFBC5E"/>
</linearGradient>
</defs>
</svg>
