<svg width="852" height="355" viewBox="0 0 852 355" fill="none" xmlns="http://www.w3.org/2000/svg">
<path d="M430.734 235.66C429.016 241.012 427.004 246.285 424.699 251.48C422.395 256.676 419.738 261.637 416.73 266.363C413.762 271.051 410.422 275.406 406.711 279.43C403.039 283.414 398.957 286.871 394.465 289.801C390.012 292.691 385.148 294.977 379.875 296.656C374.641 298.297 368.957 299.117 362.824 299.117C361.77 299.117 360.773 298.922 359.836 298.531C358.898 298.141 358.078 297.613 357.375 296.949C356.672 296.246 356.125 295.445 355.734 294.547C355.344 293.609 355.148 292.613 355.148 291.559V235.66H370.383V283.297C374.094 283.297 377.648 282.496 381.047 280.895C384.484 279.293 387.727 277.184 390.773 274.566C393.82 271.91 396.633 268.902 399.211 265.543C401.828 262.184 404.152 258.746 406.184 255.23C408.215 251.676 409.934 248.199 411.34 244.801C412.785 241.402 413.859 238.355 414.562 235.66H430.734ZM451.711 222.652H436.477V208.883H451.711V222.652ZM451.711 299H436.477V235.66H451.711V299ZM521.789 250.895H487.512C485.441 250.895 483.879 251.422 482.824 252.477C481.77 253.492 481.242 254.996 481.242 256.988V299H466.008V256.988C466.008 254.371 466.34 252.027 467.004 249.957C467.668 247.887 468.547 246.07 469.641 244.508C470.773 242.906 472.062 241.559 473.508 240.465C474.953 239.332 476.457 238.414 478.02 237.711C479.621 237.008 481.223 236.5 482.824 236.188C484.465 235.836 485.988 235.66 487.395 235.66H521.789V250.895ZM592.336 278.023C592.336 280.133 591.965 282.418 591.223 284.879C590.48 287.301 589.27 289.566 587.59 291.676C585.949 293.746 583.781 295.484 581.086 296.891C578.43 298.297 575.188 299 571.359 299H543.879C541.77 299 539.484 298.629 537.023 297.887C534.602 297.145 532.336 295.953 530.227 294.312C528.156 292.633 526.418 290.465 525.012 287.809C523.605 285.113 522.902 281.852 522.902 278.023C522.902 275.914 523.273 273.629 524.016 271.168C524.758 268.707 525.949 266.441 527.59 264.371C529.27 262.262 531.438 260.504 534.094 259.098C536.789 257.691 540.051 256.988 543.879 256.988H571.359V271.52H543.879C541.809 271.52 540.207 272.164 539.074 273.453C537.941 274.703 537.375 276.266 537.375 278.141C537.375 280.133 538.02 281.695 539.309 282.828C540.637 283.922 542.199 284.469 543.996 284.469H571.359C573.43 284.469 575.031 283.844 576.164 282.594C577.297 281.344 577.863 279.781 577.863 277.906V256.637C577.863 254.645 577.238 253.062 575.988 251.891C574.777 250.719 573.234 250.133 571.359 250.133H537.902V235.66H571.359C573.469 235.66 575.734 236.031 578.156 236.773C580.617 237.516 582.883 238.727 584.953 240.406C587.062 242.047 588.82 244.215 590.227 246.91C591.633 249.566 592.336 252.809 592.336 256.637V278.023ZM620.812 222.652H605.578V208.883H620.812V222.652ZM620.812 305.094C620.812 307.711 620.48 310.055 619.816 312.125C619.152 314.234 618.273 316.07 617.18 317.633C616.086 319.234 614.816 320.582 613.371 321.676C611.926 322.809 610.402 323.727 608.801 324.43C607.238 325.133 605.656 325.641 604.055 325.953C602.453 326.305 600.93 326.48 599.484 326.48H572.004V311.246H599.484C601.516 311.246 603.039 310.719 604.055 309.664C605.07 308.609 605.578 307.086 605.578 305.094V235.66H620.812V305.094ZM705.305 277.613C705.305 280.23 704.973 282.594 704.309 284.703C703.645 286.773 702.766 288.609 701.672 290.211C700.578 291.773 699.309 293.121 697.863 294.254C696.418 295.348 694.895 296.246 693.293 296.949C691.73 297.652 690.148 298.18 688.547 298.531C686.945 298.844 685.422 299 683.977 299H656.496V283.766H683.977C686.008 283.766 687.531 283.238 688.547 282.184C689.562 281.129 690.07 279.605 690.07 277.613V257.105C690.07 254.996 689.543 253.434 688.488 252.418C687.473 251.402 685.969 250.895 683.977 250.895H656.613C654.543 250.895 652.98 251.422 651.926 252.477C650.871 253.492 650.344 254.996 650.344 256.988V318.805H635.109V256.988C635.109 254.371 635.441 252.027 636.105 249.957C636.77 247.887 637.648 246.07 638.742 244.508C639.875 242.906 641.164 241.559 642.609 240.465C644.055 239.332 645.559 238.414 647.121 237.711C648.723 237.008 650.324 236.5 651.926 236.188C653.566 235.836 655.09 235.66 656.496 235.66H683.977C686.594 235.66 688.938 235.992 691.008 236.656C693.078 237.32 694.895 238.199 696.457 239.293C698.059 240.387 699.406 241.656 700.5 243.102C701.633 244.547 702.551 246.07 703.254 247.672C703.957 249.234 704.465 250.816 704.777 252.418C705.129 254.02 705.305 255.543 705.305 256.988V277.613ZM775.559 250.895H748.957V299H733.547V250.895H713.742V235.66H733.547V214.977H748.957V235.66H775.559V250.895ZM813.41 299H806.613C804.426 299 802.082 298.629 799.582 297.887C797.121 297.145 794.816 295.934 792.668 294.254C790.52 292.535 788.742 290.328 787.336 287.633C785.93 284.898 785.227 281.559 785.227 277.613V208.883H800.461V277.613C800.461 279.488 801.047 280.992 802.219 282.125C803.391 283.219 804.855 283.766 806.613 283.766H813.41V299Z" fill="white"/>
<path d="M335.098 0.464328C456.612 -6.19685 443.436 199.347 313.075 189.577V275.648C313.075 277.913 312.831 280.18 312.162 282.343C302.38 313.967 267.404 332.239 228.381 315.9C225.42 314.66 222.801 312.734 220.549 310.447L12.4989 99.1929C11.4 98.0771 10.3678 96.8538 9.51782 95.5385C-25.3653 41.5572 42.9293 -29.3051 96.522 12.7682L236.873 152.581C261.605 179.425 278.473 187.013 313.075 189.577V25.9179C313.075 12.921 322.12 1.17573 335.098 0.464328Z" fill="white"/>
<ellipse cx="594.5" cy="348.5" rx="230.5" ry="6.5" fill="url(#paint0_radial_501_2)" fill-opacity="0.17"/>
<defs>
<radialGradient id="paint0_radial_501_2" cx="0" cy="0" r="1" gradientUnits="userSpaceOnUse" gradientTransform="translate(594.5 348.5) rotate(90) scale(6.5 230.5)">
<stop stop-color="#142022"/>
<stop offset="1" stop-color="#142022" stop-opacity="0.08"/>
</radialGradient>
</defs>
</svg>
